<svg width="256" height="256" viewBox="0 0 256 256" fill="none" xmlns="http://www.w3.org/2000/svg">
<rect width="256" height="256" rx="64" fill="#4F46E5"/>
<path d="M64 80C64 71.1634 71.1634 64 80 64H176C184.837 64 192 71.1634 192 80V128C192 136.837 184.837 144 176 144H80C71.1634 144 64 136.837 64 128V80Z" fill="white"/>
<path d="M64 160C64 151.163 71.1634 144 80 144H176C184.837 144 192 151.163 192 160V176C192 184.837 184.837 192 176 192H80C71.1634 192 64 184.837 64 176V160Z" fill="white" opacity="0.7"/>
</svg>
